<?xml version="1.0" encoding="UTF-8"?>
<!--https://pixabay.com/fr/vectors/t%C3%A9l%C3%A9charger-nuage-internet-1745473/-->
<!--https://pixabay.com/fr/users/200degrees-2051452/ Indonesia-->
<svg width="238.33mm" height="200.13mm" version="1.1" viewBox="0 0 844.48752 709.12711" xmlns="http://www.w3.org/2000/svg">
 <g transform="translate(40.406 -64.433)">
  <rect x="-40.406" y="64.433" width="844.49" height="709.13" ry="0" fill="#fff"/>
  <rect x="30.533" y="184.49" width="319.06" height="100.3" ry="50.152" fill="#42a5f5"/>
  <ellipse cx="240.37" cy="179.69" rx="73.881" ry="69.448" fill="#42a5f5"/>
  <ellipse cx="160.35" cy="205.55" rx="65.235" ry="61.321" fill="#42a5f5"/>
  <g transform="matrix(.36456 0 0 .36456 405.65 -62.831)" fill="#fff">
   <rect x="-642.06" y="796.01" width="112.28" height="102.88" ry=".69815"/>
   <path transform="matrix(.29544 -.22019 .40857 .15922 -333.77 617.99)" d="m-660.47-23.102-76.89 174.8-110.97-155.41-112.94-153.99l190.07-18.403 189.83-20.811z"/>
   <rect x="-682.67" y="804.03" width="193.57" height="8.6052" ry="2.056"/>
  </g>
  <g transform="matrix(5.851 0 0 5.851 -525.95 438.93)" fill="#ff9800">
   <rect x="97.255" y="30.192" width="54.531" height="17.143" ry="8.5714"/>
   <ellipse cx="133.12" cy="29.372" rx="12.627" ry="11.869"/>
   <ellipse cx="119.44" cy="33.792" rx="11.149" ry="10.48"/>
  </g>
  <g transform="matrix(.36456 0 0 .36456 373.43 368.26)" fill="#fff">
   <rect x="-642.06" y="796.01" width="112.28" height="102.88" ry=".69815"/>
   <path transform="matrix(.29544 -.22019 .40857 .15922 -333.77 617.99)" d="m-660.47-23.102-76.89 174.8-110.97-155.41-112.94-153.99l190.07-18.403 189.83-20.811z"/>
   <rect x="-682.67" y="804.03" width="193.57" height="8.6052" ry="2.056"/>
  </g>
  <g transform="matrix(.36456 0 0 -.36456 467.57 956.49)" fill="#fff">
   <rect x="-642.06" y="796.01" width="112.28" height="102.88" ry=".69815"/>
   <path transform="matrix(.29544 -.22019 .40857 .15922 -333.77 617.99)" d="m-660.47-23.102-76.89 174.8-110.97-155.41-112.94-153.99l190.07-18.403 189.83-20.811z"/>
   <rect x="-682.67" y="804.03" width="193.57" height="8.6052" ry="2.056"/>
  </g>
  <path d="m607.21 541.34a73.881 69.448 0 0 0 -64.604 35.795 65.235 61.321 0 0 0 -15.408 -1.8106 65.235 61.321 0 0 0 -61.182 40.262h-18.488c-27.784 0-50.152 22.368-50.152 50.152s22.368 50.152 50.152 50.152h218.76c27.784 0 50.152-22.368 50.152-50.152 0-22.76-15.015-41.877-35.717-48.049a73.881 69.448 0 0 0 0.36719 -6.9023 73.881 69.448 0 0 0 -73.879 -69.447z" fill="none" stroke="#ff9800" stroke-width="5.851"/>
  <g transform="matrix(.36456 0 0 .36456 727.72 368.26)" fill="#2196f3">
   <rect x="-642.06" y="796.01" width="112.28" height="102.88" ry=".69815"/>
   <path transform="matrix(.29544 -.22019 .40857 .15922 -333.77 617.99)" d="m-660.47-23.102-76.89 174.8-110.97-155.41-112.94-153.99l190.07-18.403 189.83-20.811z"/>
   <rect x="-682.67" y="804.03" width="193.57" height="8.6052" ry="2.056"/>
  </g>
  <g transform="matrix(.36456 0 0 -.36456 821.86 956.49)" fill="#4caf50">
   <rect x="-642.06" y="796.01" width="112.28" height="102.88" ry=".69815"/>
   <path transform="matrix(.29544 -.22019 .40857 .15922 -333.77 617.99)" d="m-660.47-23.102-76.89 174.8-110.97-155.41-112.94-153.99l190.07-18.403 189.83-20.811z"/>
   <rect x="-682.67" y="804.03" width="193.57" height="8.6052" ry="2.056"/>
  </g>
  <g transform="matrix(5.851 0 0 5.851 -538.51 223.55)" fill="#4caf50">
   <rect x="97.255" y="30.192" width="54.531" height="17.143" ry="8.5714"/>
   <ellipse cx="133.12" cy="29.372" rx="12.627" ry="11.869"/>
   <ellipse cx="119.44" cy="33.792" rx="11.149" ry="10.48"/>
  </g>
  <g transform="matrix(.36456 0 0 -.36456 405.65 741.11)" fill="#fff">
   <rect x="-642.06" y="796.01" width="112.28" height="102.88" ry=".69815"/>
   <path transform="matrix(.29544 -.22019 .40857 .15922 -333.77 617.99)" d="m-660.47-23.102-76.89 174.8-110.97-155.41-112.94-153.99l190.07-18.403 189.83-20.811z"/>
   <rect x="-682.67" y="804.03" width="193.57" height="8.6052" ry="2.056"/>
  </g>
  <path d="m600.37 325.96a73.881 69.448 0 0 0 -64.604 35.795 65.235 61.321 0 0 0 -15.408 -1.8086 65.235 61.321 0 0 0 -61.18 40.262h-18.49c-27.784 0-50.15 22.368-50.15 50.152s22.366 50.15 50.15 50.15h218.76c27.784 0 50.152-22.366 50.152-50.15 0-22.76-15.015-41.879-35.717-48.051a73.881 69.448 0 0 0 0.36718 -6.9024 73.881 69.448 0 0 0 -73.881 -69.447z" fill="none" stroke="#4caf50" stroke-width="5.851"/>
  <g transform="matrix(.36456 0 0 -.36456 765.65 741.11)" fill="#4caf50">
   <rect x="-642.06" y="796.01" width="112.28" height="102.88" ry=".69815"/>
   <path transform="matrix(.29544 -.22019 .40857 .15922 -333.77 617.99)" d="m-660.47-23.102-76.89 174.8-110.97-155.41-112.94-153.99l190.07-18.403 189.83-20.811z"/>
   <rect x="-682.67" y="804.03" width="193.57" height="8.6052" ry="2.056"/>
  </g>
  <path d="m596.08 110.25a73.881 69.448 0 0 0 -64.602 35.797 65.235 61.321 0 0 0 -15.41 -1.8106 65.235 61.321 0 0 0 -61.18 40.262h-18.49c-27.784 0-50.152 22.368-50.152 50.152s22.368 50.152 50.152 50.152h218.76c27.784 0 50.15-22.368 50.15-50.152 0-22.76-15.013-41.877-35.715-48.049a73.881 69.448 0 0 0 0.36719 -6.9024 73.881 69.448 0 0 0 -73.881 -69.449z" fill="none" stroke="#00bcd4" stroke-width="5.851"/>
  <g transform="matrix(.36456 0 0 .36456 761.37 -62.831)" fill="#2196f3">
   <rect x="-642.06" y="796.01" width="112.28" height="102.88" ry=".69815"/>
   <path transform="matrix(.29544 -.22019 .40857 .15922 -333.77 617.99)" d="m-660.47-23.102-76.89 174.8-110.97-155.41-112.94-153.99l190.07-18.403 189.83-20.811z"/>
   <rect x="-682.67" y="804.03" width="193.57" height="8.6052" ry="2.056"/>
  </g>
 </g>
</svg>
